<svg width="243.414062" height="32.000000" viewBox="0 0 243.414 32" fill="none" xmlns="http://www.w3.org/2000/svg" xmlns:xlink="http://www.w3.org/1999/xlink">
	<desc>
			Created with Pixso.
	</desc>
	<defs/>
	<path id="Vector (Stroke)" d="M6 12.45C6.55 12.45 7 12.89 7 13.45L7 26L25 26L25 13.45C25 12.89 25.44 12.45 26 12.45C26.55 12.45 27 12.89 27 13.45L27 26C27 26.53 26.78 27.03 26.41 27.41C26.03 27.78 25.53 28 25 28L7 28C6.46 28 5.96 27.78 5.58 27.41C5.21 27.03 5 26.53 5 26L5 13.45C5 12.89 5.44 12.45 6 12.45Z" fill="#A259FF" fill-opacity="1.000000" fill-rule="evenodd"/>
	<path id="Vector (Stroke)" d="M3 5C3 4.44 3.44 4 4 4L28 4C28.55 4 29 4.44 29 5C29 5.55 28.55 6 28 6L4 6C3.44 6 3 5.55 3 5Z" fill="#A259FF" fill-opacity="1.000000" fill-rule="evenodd"/>
	<path id="Vector (Stroke)" d="M4 7C4.55 7 5 7.44 5 8L5 10C5 10.79 5.31 11.55 5.87 12.12C6.44 12.68 7.2 13 8 13C8.79 13 9.55 12.68 10.12 12.12C10.68 11.55 11 10.79 11 10L11 8C11 7.44 11.44 7 12 7C12.55 7 13 7.44 13 8L13 10C13 11.32 12.47 12.59 11.53 13.53C10.59 14.47 9.32 15 8 15C6.67 15 5.4 14.47 4.46 13.53C3.52 12.59 3 11.32 3 10L3 8C3 7.44 3.44 7 4 7Z" fill="#A259FF" fill-opacity="1.000000" fill-rule="evenodd"/>
	<path id="Vector (Stroke)" d="M12 7C12.55 7 13 7.44 13 8L13 10C13 10.79 13.31 11.55 13.87 12.12C14.44 12.68 15.2 13 16 13C16.79 13 17.55 12.68 18.12 12.12C18.68 11.55 19 10.79 19 10L19 8C19 7.44 19.44 7 20 7C20.55 7 21 7.44 21 8L21 10C21 11.32 20.47 12.59 19.53 13.53C18.59 14.47 17.32 15 16 15C14.67 15 13.4 14.47 12.46 13.53C11.52 12.59 11 11.32 11 10L11 8C11 7.44 11.44 7 12 7Z" fill="#A259FF" fill-opacity="1.000000" fill-rule="evenodd"/>
	<path id="Vector (Stroke)" d="M20 7C20.55 7 21 7.44 21 8L21 10C21 10.79 21.31 11.55 21.87 12.12C22.44 12.68 23.2 13 24 13C24.79 13 25.55 12.68 26.12 12.12C26.68 11.55 27 10.79 27 10L27 8C27 7.44 27.44 7 28 7C28.55 7 29 7.44 29 8L29 10C29 11.32 28.47 12.59 27.53 13.53C26.59 14.47 25.32 15 24 15C22.67 15 21.4 14.47 20.46 13.53C19.52 12.59 19 11.32 19 10L19 8C19 7.44 19.44 7 20 7Z" fill="#A259FF" fill-opacity="1.000000" fill-rule="evenodd"/>
	<path id="NFT Marketplace" d="M51.48 22.54L51.87 22.54L51.87 8.59L54.78 8.59L54.78 24L49.1 24L47.29 10.05L46.9 10.05L46.9 24L44 24L44 8.59L49.67 8.59L51.48 22.54ZM58.06 8.59L67.92 8.59L67.92 11.37L60.96 11.37L60.96 14.89L67.78 14.89L67.78 17.66L60.96 17.66L60.96 24L58.06 24L58.06 8.59ZM70.78 8.59L81.87 8.59L81.87 11.37L77.78 11.37L77.78 24L74.87 24L74.87 11.37L70.78 11.37L70.78 8.59ZM97.02 8.59L102.12 8.59L103 20.17L103 22.41L103.53 22.41L103.53 20.17L104.41 8.59L109.52 8.59L109.52 24L106.88 24L106.88 13.7L107.14 10.18L106.61 10.18L105.47 24L101.11 24L99.92 10.18L99.4 10.18L99.66 13.7L99.66 24L97.02 24L97.02 8.59ZM142.32 17.09L142.84 17.09L145.75 13.08L148.78 13.08L148.78 13.21L145.26 18.21L145.26 18.6L149.14 23.86L149.14 24L145.97 24L142.84 19.73L142.32 19.73L142.32 24L139.54 24L139.54 8.59L142.32 8.59L142.32 17.09ZM165.3 13.08L168.53 13.08L168.53 8.59L171.3 8.59L171.3 13.08L175.24 13.08L175.24 15.72L171.3 15.72L171.3 20.69C171.3 21.13 171.5 21.35 171.9 21.35L174.85 21.35L174.85 24L170.23 24C169.73 24 169.32 23.83 168.99 23.51C168.69 23.19 168.53 22.78 168.53 22.28L168.53 15.72L165.3 15.72L165.3 13.08ZM192.48 21.35L196.31 21.35L196.31 11.23L192.61 11.23L192.61 8.59L199.08 8.59L199.08 21.35L202.64 21.35L202.64 24L192.48 24L192.48 21.35ZM118.78 22.41C118.49 23.1 118.08 23.59 117.55 23.88C117.02 24.16 116.41 24.3 115.71 24.3C115.05 24.3 114.42 24.18 113.84 23.93C113.26 23.68 112.76 23.31 112.32 22.83C111.88 22.34 111.52 21.76 111.26 21.07C111.01 20.38 110.89 19.59 110.89 18.71L110.89 18.36C110.89 17.5 111.01 16.72 111.26 16.03Q111.64 15 112.27 14.27Q112.78 13.7 113.41 13.34L113.41 13.34Q113.57 13.25 113.75 13.17C114.32 12.91 114.93 12.77 115.57 12.77C116.35 12.77 116.97 12.91 117.44 13.17C117.93 13.43 118.31 13.85 118.59 14.4L118.98 14.4L118.98 13.08L121.76 13.08L121.76 20.69C121.76 21.13 121.95 21.35 122.35 21.35L122.77 21.35L122.77 24L120.88 24C120.38 24 119.97 23.85 119.64 23.55C119.34 23.26 119.18 22.88 119.18 22.41L118.78 22.41ZM124.67 13.08L129.28 13.08L129.28 14.67L129.68 14.67Q129.9 14.03 130.33 13.6L130.33 13.6Q130.5 13.42 130.72 13.28C131.21 12.94 131.81 12.77 132.5 12.77C133.58 12.77 134.46 13.12 135.12 13.81C135.78 14.48 136.11 15.52 136.11 16.91L136.11 17.39L133.25 17.66L133.25 17.35C133.25 16.75 133.09 16.27 132.78 15.92C132.48 15.55 132.01 15.37 131.4 15.37C130.78 15.37 130.3 15.58 129.95 16.01C129.59 16.43 129.42 17.04 129.42 17.83L129.42 21.35L131.93 21.35L131.93 24L124.4 24L124.4 21.35L126.65 21.35L126.65 15.72L124.67 15.72L124.67 13.08ZM154.58 19.44C154.59 19.76 154.67 20.06 154.8 20.34C154.94 20.61 155.13 20.84 155.37 21.05C155.62 21.24 155.9 21.39 156.21 21.51C156.53 21.61 156.86 21.66 157.22 21.66Q158.25 21.66 158.8 21.31Q159.35 20.94 159.59 20.43L161.97 21.75Q161.77 22.17 161.42 22.63C161.18 22.92 160.88 23.2 160.5 23.44C160.13 23.69 159.67 23.9 159.13 24.06C158.6 24.22 157.98 24.3 157.26 24.3C156.44 24.3 155.69 24.17 155.02 23.91C154.34 23.64 153.76 23.26 153.26 22.76C152.77 22.26 152.39 21.66 152.11 20.94C151.85 20.22 151.72 19.4 151.72 18.5L151.72 18.36C151.72 17.53 151.86 16.76 152.14 16.08C152.43 15.39 152.82 14.8 153.32 14.31C153.82 13.83 154.4 13.46 155.06 13.19C155.74 12.91 156.45 12.77 157.22 12.77C158.16 12.77 158.96 12.94 159.64 13.28C160.31 13.6 160.87 14.02 161.31 14.54C161.75 15.03 162.07 15.59 162.28 16.21C162.48 16.81 162.59 17.39 162.59 17.97L162.59 19.44L154.58 19.44ZM181.28 28.39L178.5 28.39L178.5 13.08L181.28 13.08L181.28 14.67L181.67 14.67C181.97 14.07 182.39 13.6 182.95 13.28C183.51 12.94 184.22 12.77 185.08 12.77C185.73 12.77 186.34 12.9 186.91 13.15C187.5 13.4 188 13.76 188.43 14.25C188.87 14.72 189.21 15.3 189.46 15.99C189.72 16.68 189.86 17.46 189.86 18.34L189.86 18.74C189.86 19.63 189.73 20.42 189.48 21.11C189.23 21.8 188.9 22.39 188.47 22.87C188.05 23.34 187.54 23.7 186.95 23.95C186.38 24.19 185.76 24.3 185.08 24.3C184.58 24.3 184.15 24.25 183.78 24.15C183.42 24.05 183.1 23.91 182.82 23.73C182.55 23.55 182.33 23.36 182.13 23.14C181.96 22.9 181.8 22.66 181.67 22.41L181.28 22.41L181.28 28.39ZM213.08 22.41C212.79 23.1 212.38 23.59 211.85 23.88C211.32 24.16 210.7 24.3 210 24.3C209.34 24.3 208.72 24.18 208.13 23.93C207.56 23.68 207.05 23.31 206.61 22.83C206.17 22.34 205.82 21.76 205.56 21.07Q205.18 20.04 205.18 18.71L205.18 18.36Q205.18 17.06 205.56 16.03C205.81 15.34 206.14 14.75 206.57 14.27Q207.07 13.7 207.7 13.34Q207.87 13.25 208.04 13.17C208.61 12.91 209.22 12.77 209.87 12.77C210.64 12.77 211.27 12.91 211.74 13.17Q211.86 13.24 211.98 13.32L211.98 13.32Q212.54 13.71 212.88 14.4L213.28 14.4L213.28 13.08L216.05 13.08L216.05 20.69Q216.05 21.06 216.23 21.22Q216.38 21.35 216.64 21.35L217.06 21.35L217.06 24L215.17 24C214.67 24 214.26 23.85 213.94 23.55C213.63 23.26 213.48 22.88 213.48 22.41L213.08 22.41ZM230.14 19.99C229.89 21.28 229.29 22.32 228.35 23.11C227.43 23.91 226.19 24.3 224.64 24.3C223.83 24.3 223.07 24.18 222.37 23.93C221.68 23.68 221.08 23.32 220.57 22.85Q220.49 22.78 220.42 22.71L220.42 22.71Q219.75 22.04 219.36 21.11Q218.92 20.08 218.92 18.76L218.92 18.5Q218.92 17.17 219.36 16.12C219.65 15.41 220.05 14.81 220.57 14.31C221.1 13.82 221.7 13.43 222.39 13.17Q222.5 13.13 222.6 13.1Q223.57 12.77 224.64 12.77C226.16 12.77 227.39 13.17 228.33 13.96Q228.86 14.4 229.25 14.95Q229.9 15.87 230.14 17.09L227.41 17.79C227.32 17.15 227.04 16.59 226.57 16.12C226.1 15.65 225.44 15.41 224.59 15.41C224.2 15.41 223.82 15.49 223.47 15.63C223.12 15.78 222.81 15.99 222.55 16.27C222.28 16.54 222.07 16.87 221.91 17.26Q221.69 17.83 221.69 18.56L221.69 18.69Q221.69 19.42 221.91 19.99C222.07 20.36 222.28 20.66 222.55 20.91C222.81 21.16 223.12 21.35 223.47 21.49C223.82 21.6 224.2 21.66 224.59 21.66C225.44 21.66 226.09 21.45 226.53 21.02Q226.61 20.95 226.68 20.87L226.68 20.87Q227.23 20.26 227.41 19.31L230.14 19.99ZM235.4 19.44Q235.42 19.83 235.55 20.17Q235.58 20.26 235.62 20.34C235.77 20.61 235.96 20.84 236.19 21.05C236.44 21.24 236.72 21.39 237.03 21.51C237.35 21.61 237.69 21.66 238.04 21.66Q239.08 21.66 239.63 21.31C239.99 21.06 240.26 20.77 240.42 20.43L242.79 21.75Q242.6 22.17 242.24 22.63C242.01 22.92 241.7 23.2 241.32 23.44C240.95 23.69 240.5 23.9 239.96 24.06Q239.16 24.3 238.09 24.3C237.26 24.3 236.52 24.17 235.84 23.91C235.17 23.64 234.58 23.26 234.08 22.76Q233.35 22.01 232.94 20.94C232.67 20.22 232.54 19.4 232.54 18.5L232.54 18.36C232.54 17.53 232.68 16.76 232.96 16.08C233.25 15.39 233.65 14.8 234.15 14.31C234.65 13.83 235.22 13.46 235.89 13.19C236.56 12.91 237.28 12.77 238.04 12.77C238.98 12.77 239.79 12.94 240.46 13.28C241.14 13.6 241.69 14.02 242.13 14.54C242.57 15.03 242.9 15.59 243.1 16.21C243.31 16.81 243.41 17.39 243.41 17.97L243.41 19.44L235.4 19.44ZM157.19 15.28C156.49 15.28 155.92 15.47 155.48 15.83C155.04 16.18 154.75 16.6 154.62 17.06L159.77 17.06C159.68 16.55 159.4 16.13 158.93 15.79C158.48 15.45 157.9 15.28 157.19 15.28ZM238.02 15.28C237.32 15.28 236.74 15.47 236.3 15.83C235.86 16.18 235.58 16.6 235.45 17.06L240.59 17.06C240.51 16.55 240.23 16.13 239.76 15.79C239.3 15.45 238.72 15.28 238.02 15.28ZM116.32 21.66C117.13 21.66 117.77 21.4 118.26 20.87C118.74 20.33 118.98 19.59 118.98 18.67L118.98 18.41C118.98 17.48 118.74 16.76 118.26 16.23Q118.01 15.95 117.69 15.76Q117.11 15.41 116.32 15.41C115.51 15.41 114.87 15.69 114.39 16.23C113.9 16.76 113.66 17.48 113.66 18.41L113.66 18.67C113.66 19.59 113.9 20.33 114.39 20.87C114.87 21.4 115.51 21.66 116.32 21.66ZM184.18 21.66C185.05 21.66 185.74 21.4 186.27 20.87Q186.43 20.71 186.56 20.52Q187.08 19.78 187.08 18.67L187.08 18.41C187.08 17.48 186.81 16.76 186.27 16.23C185.74 15.69 185.05 15.41 184.18 15.41C183.31 15.41 182.61 15.69 182.07 16.25C181.54 16.79 181.28 17.51 181.28 18.41L181.28 18.67C181.28 19.57 181.54 20.29 182.07 20.85C182.61 21.39 183.31 21.66 184.18 21.66ZM210.62 21.66C211.42 21.66 212.07 21.4 212.55 20.87C213.04 20.33 213.28 19.59 213.28 18.67L213.28 18.41C213.28 17.48 213.04 16.76 212.55 16.23C212.07 15.69 211.42 15.41 210.62 15.41C209.81 15.41 209.16 15.69 208.68 16.23C208.2 16.76 207.95 17.48 207.95 18.41L207.95 18.67C207.95 19.59 208.2 20.33 208.68 20.87C209.16 21.4 209.81 21.66 210.62 21.66Z" fill="#FFFFFF" fill-opacity="1.000000" fill-rule="evenodd"/>
</svg>
